<svg xmlns="http://www.w3.org/2000/svg"><defs>
<symbol id="menu" viewBox="0 0 24 24"><path d="M3 6h18M3 12h18M3 18h18"/></symbol>
<symbol id="play" viewBox="0 0 24 24"><path d="M7 3v18l15-9z"/></symbol><symbol id="pause" viewBox="0 0 24 24"><path d="M5 3h5v18H5zM15 3h5v18h-5z"/></symbol>
<symbol id="dual" viewBox="0 0 24 24"><rect x="2" y="3" width="20" height="18" rx="2"/><path d="M11 3v18"/></symbol>
<symbol id="window" viewBox="0 0 24 24"><rect x="2" y="3" width="20" height="18" rx="2"/><path d="M2 8h20"/></symbol>
<symbol id="wave" viewBox="0 0 24 24"><path d="M2 10v4M6 6v12M10 2v20M14 5v14M18 8v8M22 10v4"/></symbol>
<symbol id="convert" viewBox="0 0 24 24"><path d="M3 10a9 9 0 0 1 16-5l2 3M21 3v5h-5M21 14a9 9 0 0 1-16 5l-2-3M3 21v-5h5"/></symbol>
<symbol id="scissors" viewBox="0 0 24 24"><circle cx="6" cy="18" r="4"/><circle cx="18" cy="18" r="4"/><path d="m8 14 12-12M16 14 4 2"/></symbol>
<symbol id="sliders" viewBox="0 0 24 24"><path d="M2 5h4m4 0h12M2 12h12m4 0h4M2 19h6m4 0h10"/><circle cx="8" cy="5" r="2"/><circle cx="16" cy="12" r="2"/><circle cx="10" cy="19" r="2"/></symbol>
<symbol id="tempo" viewBox="0 0 24 24"><path d="M7 2h8l5 20H3zM8 16h9M10 14l8-10M9 22h5"/></symbol>
<symbol id="tag" viewBox="0 0 24 24"><path d="M3 2h9l10 10-10 10L2 12V3z"/><circle cx="7" cy="7" r="1"/></symbol>
<symbol id="file" viewBox="0 0 24 24"><path d="M5 2h9l5 5v15H5zM14 2v6h5M9 12h6M9 16h6"/></symbol>
<symbol id="searchwave" viewBox="0 0 24 24"><circle cx="10" cy="10" r="8"/><path d="m16 16 6 6M5 10h2l2-4 2 8 2-4h2"/></symbol>
<symbol id="lock" viewBox="0 0 24 24"><rect x="4" y="10" width="16" height="12" rx="2"/><path d="M8 10V6a4 4 0 0 1 8 0v4M12 15v3"/></symbol>
<symbol id="folder" viewBox="0 0 24 24"><path d="M2 20V5a2 2 0 0 1 2-2h5l3 3h8a2 2 0 0 1 2 2v3M2 20l4-10h17l-4 10z"/></symbol>
<symbol id="windows" viewBox="0 0 24 24"><path d="M2 4l8-1v8H2zM12 3l10-2v10H12zM2 13h8v8l-8-1zM12 13h10v10l-10-2z" fill="currentColor" stroke="none"/></symbol>
<symbol id="macos" viewBox="0 0 24 24"><path d="M15 2c0 2-1 3-3 4 0-2 1-4 3-4M18 13c0-3 2-4 2-4-1-2-3-2-4-2-2 0-3 1-4 1s-2-1-4-1c-3 0-5 3-5 6 0 4 3 9 5 9 1 0 2-1 4-1 1 0 2 1 3 1 2 0 4-3 5-6-1 0-2-1-2-3z" fill="currentColor" stroke="none"/></symbol>
</defs></svg>
